<svg xmlns="http://www.w3.org/2000/svg" xmlns:xlink="http://www.w3.org/1999/xlink" width="500" zoomAndPan="magnify" viewBox="0 0 375 374.999991" height="500" preserveAspectRatio="xMidYMid meet" version="1.0"><defs><g/><clipPath id="7372706c0c"><path d="M 95 94 L 185 94 L 185 270 L 95 270 Z M 95 94 " clip-rule="nonzero"/></clipPath><clipPath id="4f071dcf14"><path d="M 182.507812 94.1875 L 185.675781 268.234375 L 98.652344 269.816406 L 95.484375 95.773438 Z M 182.507812 94.1875 " clip-rule="nonzero"/></clipPath><clipPath id="4c93d9de6d"><path d="M 184.882812 224.722656 L 182.507812 94.1875 L 95.484375 95.773438 L 97.863281 226.304688 L 142.164062 269.023438 L 184.882812 224.722656 " clip-rule="nonzero"/></clipPath><clipPath id="dac7209773"><path d="M 56 145 L 163 145 L 163 227 L 56 227 Z M 56 145 " clip-rule="nonzero"/></clipPath><clipPath id="89af078e16"><path d="M 162.800781 192.242188 L 68.332031 238.152344 L 45.378906 190.917969 L 139.847656 145.007812 Z M 162.800781 192.242188 " clip-rule="nonzero"/></clipPath><clipPath id="c9e3d74727"><path d="M 91.949219 226.675781 L 162.800781 192.242188 L 139.847656 145.007812 L 68.996094 179.441406 L 56.855469 214.535156 L 91.949219 226.675781 " clip-rule="nonzero"/></clipPath><clipPath id="76d6261dd9"><path d="M 134.6875 217.8125 L 190.9375 217.8125 L 190.9375 274.0625 L 134.6875 274.0625 Z M 134.6875 217.8125 " clip-rule="nonzero"/></clipPath><clipPath id="a5108424bc"><path d="M 162.8125 217.8125 C 147.277344 217.8125 134.6875 230.402344 134.6875 245.9375 C 134.6875 261.46875 147.277344 274.0625 162.8125 274.0625 C 178.34375 274.0625 190.9375 261.46875 190.9375 245.9375 C 190.9375 230.402344 178.34375 217.8125 162.8125 217.8125 " clip-rule="nonzero"/></clipPath></defs><g fill="#4d8ca5" fill-opacity="1"><g transform="translate(121.522158, 225.478939)"><g><path d="M 164.03125 24.15625 C 164.632812 24.15625 165.234375 24.15625 165.828125 24.15625 L 165.828125 25.65625 C 163.046875 26.050781 159.9375 26.25 156.5 26.25 C 153.070312 26.25 148.847656 25.5 143.828125 24 C 138.804688 22.507812 134.257812 19.726562 130.1875 15.65625 C 121.832031 7.300781 116.757812 -3.53125 114.96875 -16.84375 L 105.875 -83.21875 L 74.859375 -13.125 C 72.078125 -7.0625 70.390625 -1.988281 69.796875 2.09375 L 68.296875 2.09375 L 29.671875 -81.875 L 23.109375 -7.75 C 22.910156 -6.0625 23.429688 -4.570312 24.671875 -3.28125 C 25.921875 -1.988281 27.289062 -1.34375 28.78125 -1.34375 L 31.171875 -1.34375 L 31.171875 0 L 2.234375 0 L 2.234375 -1.484375 L 4.625 -1.484375 C 7.3125 -1.484375 9.671875 -2.300781 11.703125 -3.9375 C 13.742188 -5.582031 15.015625 -7.75 15.515625 -10.4375 L 24.90625 -91.859375 C 16.15625 -109.054688 5.664062 -117.65625 -6.5625 -117.65625 C -7.65625 -117.65625 -8.796875 -117.609375 -9.984375 -117.515625 L -9.984375 -119 C -7.304688 -119.695312 -5.117188 -120.046875 -3.421875 -120.046875 C -1.734375 -120.046875 0.0976562 -119.96875 2.078125 -119.8125 C 4.066406 -119.664062 6.40625 -119.195312 9.09375 -118.40625 C 11.78125 -117.613281 14.316406 -116.445312 16.703125 -114.90625 C 19.085938 -113.363281 21.175781 -111.769531 22.96875 -110.125 C 24.757812 -108.488281 26.445312 -106.675781 28.03125 -104.6875 C 30.71875 -101.101562 32.859375 -97.671875 34.453125 -94.390625 L 70.390625 -16.546875 L 110.5 -106.46875 L 111.84375 -106.46875 L 125.71875 -18.1875 C 127.800781 -4.269531 132.296875 6.265625 139.203125 13.421875 C 146.117188 20.578125 154.394531 24.15625 164.03125 24.15625 Z M 164.03125 24.15625 "/></g></g></g><g clip-path="url(#7372706c0c)"><g clip-path="url(#4f071dcf14)"><g clip-path="url(#4c93d9de6d)"><path fill="#ffffff" d="M 182.507812 94.1875 L 185.675781 268.234375 L 98.652344 269.816406 L 95.484375 95.773438 Z M 182.507812 94.1875 " fill-opacity="1" fill-rule="nonzero"/></g></g></g><g clip-path="url(#dac7209773)"><g clip-path="url(#89af078e16)"><g clip-path="url(#c9e3d74727)"><path fill="#ffffff" d="M 162.800781 192.242188 L 68.332031 238.152344 L 45.378906 190.917969 L 139.847656 145.007812 Z M 162.800781 192.242188 " fill-opacity="1" fill-rule="nonzero"/></g></g></g><g clip-path="url(#76d6261dd9)"><g clip-path="url(#a5108424bc)"><path fill="#ffffff" d="M 134.6875 217.8125 L 190.9375 217.8125 L 190.9375 274.0625 L 134.6875 274.0625 Z M 134.6875 217.8125 " fill-opacity="1" fill-rule="nonzero"/></g></g><g fill="#000000" fill-opacity="1"><g transform="translate(104.367185, 221.212082)"><g><path d="M 17.0625 -105.3125 C 23.28125 -107.894531 29.257812 -109.1875 35 -109.1875 C 39.78125 -109.1875 44.707031 -107.414062 49.78125 -103.875 C 52.550781 -101.957031 55.660156 -98.226562 59.109375 -92.6875 C 61.398438 -88.851562 64.316406 -81.914062 67.859375 -71.875 L 85.359375 -22.234375 C 89.378906 -11.140625 93.46875 -2.316406 97.625 4.234375 C 101.789062 10.785156 105.59375 15.707031 109.03125 19 C 112.476562 22.300781 116.066406 24.617188 119.796875 25.953125 C 123.523438 27.296875 126.609375 27.96875 129.046875 27.96875 C 131.484375 27.96875 133.660156 27.78125 135.578125 27.40625 L 135.71875 28.84375 C 131.125 30.363281 126.628906 31.125 122.234375 31.125 C 117.835938 31.125 113.4375 30 109.03125 27.75 C 104.632812 25.507812 100.519531 22.378906 96.6875 18.359375 C 88.46875 10.035156 81.488281 -2.632812 75.75 -19.65625 L 70.15625 -36.015625 L 30.84375 -36.015625 L 20.9375 -10.46875 C 20.457031 -9.320312 20.21875 -8.175781 20.21875 -7.03125 C 20.21875 -5.882812 20.71875 -4.664062 21.71875 -3.375 C 22.726562 -2.082031 24.285156 -1.4375 26.390625 -1.4375 L 27.546875 -1.4375 L 27.546875 0 L -1.296875 0 L -1.296875 -1.4375 L 0 -1.4375 C 2.289062 -1.4375 4.535156 -2.128906 6.734375 -3.515625 C 8.941406 -4.898438 10.757812 -6.976562 12.1875 -9.75 L 47.765625 -94.96875 C 42.609375 -102.34375 36.203125 -106.03125 28.546875 -106.03125 C 25.097656 -106.03125 21.414062 -105.3125 17.5 -103.875 Z M 32.421875 -40.3125 L 68.71875 -40.3125 L 57.390625 -73.75 C 55.179688 -80.15625 53.171875 -85.175781 51.359375 -88.8125 Z M 32.421875 -40.3125 "/></g></g></g><g fill="#000000" fill-opacity="1"><g transform="translate(104.328675, 284.950822)"><g><path d="M 8.578125 -0.921875 C 8.628906 -0.816406 8.65625 -0.710938 8.65625 -0.609375 C 8.65625 -0.429688 8.578125 -0.273438 8.421875 -0.140625 C 8.273438 -0.015625 8.109375 0.046875 7.921875 0.046875 C 7.796875 0.046875 7.675781 0.015625 7.5625 -0.046875 C 7.445312 -0.117188 7.359375 -0.226562 7.296875 -0.375 L 6.578125 -1.984375 L 2.359375 -1.984375 L 1.625 -0.375 C 1.5625 -0.226562 1.472656 -0.117188 1.359375 -0.046875 C 1.253906 0.015625 1.132812 0.046875 1 0.046875 C 0.8125 0.046875 0.640625 -0.015625 0.484375 -0.140625 C 0.335938 -0.273438 0.265625 -0.429688 0.265625 -0.609375 C 0.265625 -0.710938 0.289062 -0.816406 0.34375 -0.921875 L 3.640625 -8.046875 C 3.710938 -8.203125 3.820312 -8.320312 3.96875 -8.40625 C 4.125 -8.488281 4.285156 -8.53125 4.453125 -8.53125 C 4.617188 -8.53125 4.773438 -8.488281 4.921875 -8.40625 C 5.066406 -8.320312 5.175781 -8.203125 5.25 -8.046875 Z M 2.875 -3.1875 L 6.046875 -3.1875 L 4.46875 -6.75 Z M 2.875 -3.1875 "/></g></g></g><g fill="#000000" fill-opacity="1"><g transform="translate(119.292692, 284.950822)"><g><path d="M 7.3125 -8.515625 C 7.539062 -8.515625 7.71875 -8.441406 7.84375 -8.296875 C 7.976562 -8.160156 8.046875 -7.976562 8.046875 -7.75 L 8.046875 -0.703125 C 8.046875 -0.472656 7.976562 -0.285156 7.84375 -0.140625 C 7.707031 0.00390625 7.53125 0.078125 7.3125 0.078125 C 7.0625 0.078125 6.867188 -0.015625 6.734375 -0.203125 L 2.359375 -5.90625 L 2.359375 -0.703125 C 2.359375 -0.472656 2.289062 -0.285156 2.15625 -0.140625 C 2.03125 0.00390625 1.851562 0.078125 1.625 0.078125 C 1.40625 0.078125 1.226562 0.00390625 1.09375 -0.140625 C 0.96875 -0.285156 0.90625 -0.472656 0.90625 -0.703125 L 0.90625 -7.75 C 0.90625 -7.976562 0.972656 -8.160156 1.109375 -8.296875 C 1.242188 -8.441406 1.425781 -8.515625 1.65625 -8.515625 C 1.90625 -8.515625 2.097656 -8.425781 2.234375 -8.25 L 6.59375 -2.5625 L 6.59375 -7.75 C 6.59375 -7.976562 6.660156 -8.160156 6.796875 -8.296875 C 6.929688 -8.441406 7.101562 -8.515625 7.3125 -8.515625 Z M 7.3125 -8.515625 "/></g></g></g><g fill="#000000" fill-opacity="1"><g transform="translate(134.316711, 284.950822)"><g><path d="M 8.578125 -0.921875 C 8.628906 -0.816406 8.65625 -0.710938 8.65625 -0.609375 C 8.65625 -0.429688 8.578125 -0.273438 8.421875 -0.140625 C 8.273438 -0.015625 8.109375 0.046875 7.921875 0.046875 C 7.796875 0.046875 7.675781 0.015625 7.5625 -0.046875 C 7.445312 -0.117188 7.359375 -0.226562 7.296875 -0.375 L 6.578125 -1.984375 L 2.359375 -1.984375 L 1.625 -0.375 C 1.5625 -0.226562 1.472656 -0.117188 1.359375 -0.046875 C 1.253906 0.015625 1.132812 0.046875 1 0.046875 C 0.8125 0.046875 0.640625 -0.015625 0.484375 -0.140625 C 0.335938 -0.273438 0.265625 -0.429688 0.265625 -0.609375 C 0.265625 -0.710938 0.289062 -0.816406 0.34375 -0.921875 L 3.640625 -8.046875 C 3.710938 -8.203125 3.820312 -8.320312 3.96875 -8.40625 C 4.125 -8.488281 4.285156 -8.53125 4.453125 -8.53125 C 4.617188 -8.53125 4.773438 -8.488281 4.921875 -8.40625 C 5.066406 -8.320312 5.175781 -8.203125 5.25 -8.046875 Z M 2.875 -3.1875 L 6.046875 -3.1875 L 4.46875 -6.75 Z M 2.875 -3.1875 "/></g></g></g><g fill="#000000" fill-opacity="1"><g transform="translate(149.280727, 284.950822)"><g><path d="M 3.84375 0.109375 C 3.226562 0.109375 2.644531 0.0234375 2.09375 -0.140625 C 1.539062 -0.304688 1.09375 -0.523438 0.75 -0.796875 C 0.570312 -0.941406 0.484375 -1.132812 0.484375 -1.375 C 0.484375 -1.539062 0.53125 -1.6875 0.625 -1.8125 C 0.726562 -1.9375 0.847656 -2 0.984375 -2 C 1.128906 -2 1.289062 -1.945312 1.46875 -1.84375 C 1.8125 -1.59375 2.171875 -1.410156 2.546875 -1.296875 C 2.929688 -1.179688 3.347656 -1.125 3.796875 -1.125 C 4.390625 -1.125 4.835938 -1.222656 5.140625 -1.421875 C 5.453125 -1.628906 5.609375 -1.929688 5.609375 -2.328125 C 5.609375 -2.628906 5.460938 -2.863281 5.171875 -3.03125 C 4.878906 -3.195312 4.394531 -3.351562 3.71875 -3.5 C 3.007812 -3.65625 2.4375 -3.832031 2 -4.03125 C 1.5625 -4.226562 1.226562 -4.484375 1 -4.796875 C 0.78125 -5.109375 0.671875 -5.503906 0.671875 -5.984375 C 0.671875 -6.484375 0.8125 -6.925781 1.09375 -7.3125 C 1.375 -7.707031 1.765625 -8.015625 2.265625 -8.234375 C 2.765625 -8.453125 3.328125 -8.5625 3.953125 -8.5625 C 5.085938 -8.5625 6.019531 -8.257812 6.75 -7.65625 C 6.851562 -7.570312 6.925781 -7.484375 6.96875 -7.390625 C 7.007812 -7.304688 7.03125 -7.203125 7.03125 -7.078125 C 7.03125 -6.910156 6.976562 -6.765625 6.875 -6.640625 C 6.78125 -6.515625 6.664062 -6.453125 6.53125 -6.453125 C 6.445312 -6.453125 6.367188 -6.460938 6.296875 -6.484375 C 6.234375 -6.515625 6.144531 -6.5625 6.03125 -6.625 C 5.707031 -6.863281 5.390625 -7.039062 5.078125 -7.15625 C 4.773438 -7.269531 4.398438 -7.328125 3.953125 -7.328125 C 3.398438 -7.328125 2.96875 -7.21875 2.65625 -7 C 2.34375 -6.78125 2.1875 -6.472656 2.1875 -6.078125 C 2.1875 -5.753906 2.328125 -5.503906 2.609375 -5.328125 C 2.890625 -5.148438 3.363281 -4.988281 4.03125 -4.84375 C 4.738281 -4.675781 5.316406 -4.492188 5.765625 -4.296875 C 6.210938 -4.109375 6.550781 -3.859375 6.78125 -3.546875 C 7.019531 -3.242188 7.140625 -2.863281 7.140625 -2.40625 C 7.140625 -1.914062 7 -1.476562 6.71875 -1.09375 C 6.445312 -0.71875 6.0625 -0.421875 5.5625 -0.203125 C 5.0625 0.00390625 4.488281 0.109375 3.84375 0.109375 Z M 3.84375 0.109375 "/></g></g></g><g fill="#000000" fill-opacity="1"><g transform="translate(162.996745, 284.950822)"><g/></g></g><g fill="#000000" fill-opacity="1"><g transform="translate(172.308756, 284.950822)"><g><path d="M 8.421875 -8.515625 C 8.648438 -8.515625 8.832031 -8.441406 8.96875 -8.296875 C 9.101562 -8.160156 9.171875 -7.976562 9.171875 -7.75 L 9.171875 -0.640625 C 9.171875 -0.421875 9.101562 -0.242188 8.96875 -0.109375 C 8.84375 0.015625 8.675781 0.078125 8.46875 0.078125 C 8.257812 0.078125 8.09375 0.015625 7.96875 -0.109375 C 7.851562 -0.242188 7.796875 -0.421875 7.796875 -0.640625 L 7.796875 -5.59375 L 5.765625 -1.734375 C 5.660156 -1.554688 5.550781 -1.425781 5.4375 -1.34375 C 5.332031 -1.257812 5.203125 -1.21875 5.046875 -1.21875 C 4.898438 -1.21875 4.769531 -1.253906 4.65625 -1.328125 C 4.539062 -1.410156 4.4375 -1.546875 4.34375 -1.734375 L 2.296875 -5.53125 L 2.296875 -0.640625 C 2.296875 -0.429688 2.234375 -0.257812 2.109375 -0.125 C 1.984375 0.0078125 1.816406 0.078125 1.609375 0.078125 C 1.398438 0.078125 1.234375 0.015625 1.109375 -0.109375 C 0.992188 -0.242188 0.9375 -0.421875 0.9375 -0.640625 L 0.9375 -7.75 C 0.9375 -7.976562 1 -8.160156 1.125 -8.296875 C 1.257812 -8.441406 1.441406 -8.515625 1.671875 -8.515625 C 1.984375 -8.515625 2.226562 -8.34375 2.40625 -8 L 5.0625 -2.921875 L 7.71875 -8 C 7.894531 -8.34375 8.128906 -8.515625 8.421875 -8.515625 Z M 8.421875 -8.515625 "/></g></g></g><g fill="#000000" fill-opacity="1"><g transform="translate(188.460774, 284.950822)"><g><path d="M 8.578125 -0.921875 C 8.628906 -0.816406 8.65625 -0.710938 8.65625 -0.609375 C 8.65625 -0.429688 8.578125 -0.273438 8.421875 -0.140625 C 8.273438 -0.015625 8.109375 0.046875 7.921875 0.046875 C 7.796875 0.046875 7.675781 0.015625 7.5625 -0.046875 C 7.445312 -0.117188 7.359375 -0.226562 7.296875 -0.375 L 6.578125 -1.984375 L 2.359375 -1.984375 L 1.625 -0.375 C 1.5625 -0.226562 1.472656 -0.117188 1.359375 -0.046875 C 1.253906 0.015625 1.132812 0.046875 1 0.046875 C 0.8125 0.046875 0.640625 -0.015625 0.484375 -0.140625 C 0.335938 -0.273438 0.265625 -0.429688 0.265625 -0.609375 C 0.265625 -0.710938 0.289062 -0.816406 0.34375 -0.921875 L 3.640625 -8.046875 C 3.710938 -8.203125 3.820312 -8.320312 3.96875 -8.40625 C 4.125 -8.488281 4.285156 -8.53125 4.453125 -8.53125 C 4.617188 -8.53125 4.773438 -8.488281 4.921875 -8.40625 C 5.066406 -8.320312 5.175781 -8.203125 5.25 -8.046875 Z M 2.875 -3.1875 L 6.046875 -3.1875 L 4.46875 -6.75 Z M 2.875 -3.1875 "/></g></g></g><g fill="#000000" fill-opacity="1"><g transform="translate(203.424787, 284.950822)"><g><path d="M 7.53125 -8.515625 C 7.757812 -8.515625 7.941406 -8.441406 8.078125 -8.296875 C 8.210938 -8.160156 8.28125 -7.976562 8.28125 -7.75 L 8.28125 -0.703125 C 8.28125 -0.472656 8.207031 -0.285156 8.0625 -0.140625 C 7.925781 0.00390625 7.75 0.078125 7.53125 0.078125 C 7.289062 0.078125 7.101562 0.00390625 6.96875 -0.140625 C 6.832031 -0.285156 6.765625 -0.472656 6.765625 -0.703125 L 6.765625 -3.671875 L 2.4375 -3.671875 L 2.4375 -0.703125 C 2.4375 -0.472656 2.363281 -0.285156 2.21875 -0.140625 C 2.082031 0.00390625 1.898438 0.078125 1.671875 0.078125 C 1.441406 0.078125 1.253906 0.00390625 1.109375 -0.140625 C 0.972656 -0.285156 0.90625 -0.472656 0.90625 -0.703125 L 0.90625 -7.75 C 0.90625 -7.976562 0.972656 -8.160156 1.109375 -8.296875 C 1.242188 -8.441406 1.429688 -8.515625 1.671875 -8.515625 C 1.898438 -8.515625 2.082031 -8.441406 2.21875 -8.296875 C 2.363281 -8.160156 2.4375 -7.976562 2.4375 -7.75 L 2.4375 -4.921875 L 6.765625 -4.921875 L 6.765625 -7.75 C 6.765625 -7.976562 6.832031 -8.160156 6.96875 -8.296875 C 7.101562 -8.441406 7.289062 -8.515625 7.53125 -8.515625 Z M 7.53125 -8.515625 "/></g></g></g><g fill="#000000" fill-opacity="1"><g transform="translate(218.676808, 284.950822)"><g><path d="M 6.1875 -8.25 C 6.332031 -8.425781 6.503906 -8.515625 6.703125 -8.515625 C 6.890625 -8.515625 7.054688 -8.441406 7.203125 -8.296875 C 7.347656 -8.160156 7.421875 -8 7.421875 -7.8125 C 7.421875 -7.65625 7.359375 -7.503906 7.234375 -7.359375 L 4.515625 -4.03125 L 4.515625 -0.703125 C 4.515625 -0.460938 4.441406 -0.269531 4.296875 -0.125 C 4.148438 0.0078125 3.96875 0.078125 3.75 0.078125 C 3.507812 0.078125 3.316406 0.0078125 3.171875 -0.125 C 3.035156 -0.269531 2.96875 -0.460938 2.96875 -0.703125 L 2.96875 -4.03125 L 0.234375 -7.359375 C 0.117188 -7.503906 0.0625 -7.65625 0.0625 -7.8125 C 0.0625 -8 0.128906 -8.160156 0.265625 -8.296875 C 0.410156 -8.441406 0.578125 -8.515625 0.765625 -8.515625 C 0.960938 -8.515625 1.132812 -8.425781 1.28125 -8.25 L 3.75 -5.203125 Z M 6.1875 -8.25 "/></g></g></g><g fill="#000000" fill-opacity="1"><g transform="translate(232.212822, 284.950822)"><g><path d="M 4.6875 0.109375 C 3.851562 0.109375 3.132812 -0.0664062 2.53125 -0.421875 C 1.925781 -0.773438 1.457031 -1.28125 1.125 -1.9375 C 0.800781 -2.59375 0.640625 -3.359375 0.640625 -4.234375 C 0.640625 -5.117188 0.800781 -5.882812 1.125 -6.53125 C 1.457031 -7.1875 1.925781 -7.6875 2.53125 -8.03125 C 3.132812 -8.382812 3.851562 -8.5625 4.6875 -8.5625 C 5.507812 -8.5625 6.222656 -8.382812 6.828125 -8.03125 C 7.429688 -7.6875 7.894531 -7.1875 8.21875 -6.53125 C 8.539062 -5.882812 8.703125 -5.117188 8.703125 -4.234375 C 8.703125 -3.359375 8.535156 -2.59375 8.203125 -1.9375 C 7.878906 -1.28125 7.414062 -0.773438 6.8125 -0.421875 C 6.207031 -0.0664062 5.5 0.109375 4.6875 0.109375 Z M 4.6875 -1.125 C 5.457031 -1.125 6.0625 -1.390625 6.5 -1.921875 C 6.9375 -2.460938 7.15625 -3.234375 7.15625 -4.234375 C 7.15625 -5.234375 6.9375 -6 6.5 -6.53125 C 6.0625 -7.0625 5.457031 -7.328125 4.6875 -7.328125 C 3.894531 -7.328125 3.28125 -7.0625 2.84375 -6.53125 C 2.414062 -6 2.203125 -5.234375 2.203125 -4.234375 C 2.203125 -3.234375 2.414062 -2.460938 2.84375 -1.921875 C 3.28125 -1.390625 3.894531 -1.125 4.6875 -1.125 Z M 4.6875 -1.125 "/></g></g></g><g fill="#000000" fill-opacity="1"><g transform="translate(247.620837, 284.950822)"><g><path d="M 4.40625 0.109375 C 3.238281 0.109375 2.351562 -0.1875 1.75 -0.78125 C 1.15625 -1.382812 0.859375 -2.265625 0.859375 -3.421875 L 0.859375 -7.75 C 0.859375 -7.976562 0.925781 -8.160156 1.0625 -8.296875 C 1.195312 -8.441406 1.382812 -8.515625 1.625 -8.515625 C 1.851562 -8.515625 2.035156 -8.441406 2.171875 -8.296875 C 2.304688 -8.160156 2.375 -7.976562 2.375 -7.75 L 2.375 -3.34375 C 2.375 -2.613281 2.546875 -2.0625 2.890625 -1.6875 C 3.234375 -1.3125 3.738281 -1.125 4.40625 -1.125 C 5.0625 -1.125 5.5625 -1.3125 5.90625 -1.6875 C 6.25 -2.0625 6.421875 -2.613281 6.421875 -3.34375 L 6.421875 -7.75 C 6.421875 -7.976562 6.488281 -8.160156 6.625 -8.296875 C 6.757812 -8.441406 6.941406 -8.515625 7.171875 -8.515625 C 7.410156 -8.515625 7.597656 -8.441406 7.734375 -8.296875 C 7.867188 -8.160156 7.9375 -7.976562 7.9375 -7.75 L 7.9375 -3.421875 C 7.9375 -2.273438 7.632812 -1.398438 7.03125 -0.796875 C 6.425781 -0.191406 5.550781 0.109375 4.40625 0.109375 Z M 4.40625 0.109375 "/></g></g></g><g fill="#000000" fill-opacity="1"><g transform="translate(262.476858, 284.950822)"><g><path d="M 6.125 -4.375 C 6.613281 -4.226562 6.988281 -3.972656 7.25 -3.609375 C 7.519531 -3.253906 7.65625 -2.816406 7.65625 -2.296875 C 7.65625 -1.578125 7.394531 -1.015625 6.875 -0.609375 C 6.363281 -0.203125 5.65625 0 4.75 0 L 1.65625 0 C 1.425781 0 1.242188 -0.0625 1.109375 -0.1875 C 0.972656 -0.320312 0.90625 -0.503906 0.90625 -0.734375 L 0.90625 -7.734375 C 0.90625 -7.960938 0.972656 -8.140625 1.109375 -8.265625 C 1.242188 -8.390625 1.425781 -8.453125 1.65625 -8.453125 L 4.625 -8.453125 C 5.507812 -8.453125 6.203125 -8.257812 6.703125 -7.875 C 7.203125 -7.488281 7.453125 -6.945312 7.453125 -6.25 C 7.453125 -5.800781 7.332031 -5.410156 7.09375 -5.078125 C 6.863281 -4.753906 6.539062 -4.519531 6.125 -4.375 Z M 2.421875 -4.890625 L 4.375 -4.890625 C 5.4375 -4.890625 5.96875 -5.285156 5.96875 -6.078125 C 5.96875 -6.484375 5.835938 -6.78125 5.578125 -6.96875 C 5.316406 -7.164062 4.914062 -7.265625 4.375 -7.265625 L 2.421875 -7.265625 Z M 4.578125 -1.203125 C 5.140625 -1.203125 5.546875 -1.300781 5.796875 -1.5 C 6.054688 -1.695312 6.1875 -2.007812 6.1875 -2.4375 C 6.1875 -2.863281 6.054688 -3.179688 5.796875 -3.390625 C 5.535156 -3.597656 5.128906 -3.703125 4.578125 -3.703125 L 2.421875 -3.703125 L 2.421875 -1.203125 Z M 4.578125 -1.203125 "/></g></g></g></svg>